<svg width="344" height="54" viewBox="0 0 344 54" fill="none" xmlns="http://www.w3.org/2000/svg">
<rect width="344" height="54" rx="27" fill="#6F778B" fill-opacity="0.2"/>
<path d="M54.488 32.288C53.5173 32.288 52.6907 32.128 52.008 31.808C51.3253 31.488 50.8027 31.0453 50.44 30.48C50.0773 29.9147 49.896 29.2747 49.896 28.56H51.464C51.464 28.912 51.5547 29.264 51.736 29.616C51.928 29.968 52.2427 30.2613 52.68 30.496C53.128 30.7307 53.7307 30.848 54.488 30.848C55.192 30.848 55.768 30.7467 56.216 30.544C56.664 30.3307 56.9947 30.0587 57.208 29.728C57.4213 29.3867 57.528 29.0187 57.528 28.624C57.528 28.144 57.32 27.7493 56.904 27.44C56.488 27.12 55.88 26.9227 55.08 26.848L53.784 26.736C52.7493 26.6507 51.9227 26.3307 51.304 25.776C50.6853 25.2213 50.376 24.4907 50.376 23.584C50.376 22.8693 50.5467 22.2453 50.888 21.712C51.24 21.1787 51.7253 20.7627 52.344 20.464C52.9627 20.1547 53.6827 20 54.504 20C55.3147 20 56.0293 20.1493 56.648 20.448C57.2667 20.7467 57.7467 21.168 58.088 21.712C58.44 22.2453 58.616 22.8853 58.616 23.632H57.048C57.048 23.2587 56.9573 22.9067 56.776 22.576C56.6053 22.2453 56.3333 21.9733 55.96 21.76C55.5867 21.5467 55.1013 21.44 54.504 21.44C53.928 21.44 53.448 21.5413 53.064 21.744C52.6907 21.9467 52.408 22.2133 52.216 22.544C52.0347 22.864 51.944 23.2107 51.944 23.584C51.944 24.0107 52.1093 24.3893 52.44 24.72C52.7707 25.0507 53.2613 25.2427 53.912 25.296L55.208 25.408C56.008 25.472 56.696 25.6427 57.272 25.92C57.8587 26.1867 58.3067 26.5493 58.616 27.008C58.936 27.456 59.096 27.9947 59.096 28.624C59.096 29.3387 58.904 29.9733 58.52 30.528C58.136 31.0827 57.5973 31.5147 56.904 31.824C56.2107 32.1333 55.4053 32.288 54.488 32.288ZM63.9993 32L65.7273 23.744H67.8073L69.8233 32H68.5113L66.4953 23.776H67.0073L65.2633 32H63.9993ZM63.2153 32V30.784H64.9913V32H63.2153ZM62.8633 32L60.4473 23.456H61.9193L64.2713 32H62.8633ZM68.8313 32V30.784H70.6073V32H68.8313ZM69.5513 32L71.5993 23.456H72.9913L70.8953 32H69.5513ZM75.4818 32V23.456H77.0178V32H75.4818ZM74.1698 24.672V23.456H77.0178V24.672H74.1698ZM75.9138 22.08C75.5724 22.08 75.3164 21.9893 75.1458 21.808C74.9858 21.6267 74.9058 21.3973 74.9058 21.12C74.9058 20.8427 74.9858 20.6133 75.1458 20.432C75.3164 20.2507 75.5724 20.16 75.9138 20.16C76.2551 20.16 76.5058 20.2507 76.6658 20.432C76.8364 20.6133 76.9218 20.8427 76.9218 21.12C76.9218 21.3973 76.8364 21.6267 76.6658 21.808C76.5058 21.9893 76.2551 22.08 75.9138 22.08ZM79.9876 35.2V23.456H81.2036V27.152L80.9156 27.12C80.969 26.2027 81.161 25.456 81.4916 24.88C81.833 24.2933 82.2756 23.8613 82.8196 23.584C83.3636 23.3067 83.9556 23.168 84.5956 23.168C85.2143 23.168 85.7743 23.2853 86.2756 23.52C86.7876 23.7547 87.225 24.0747 87.5876 24.48C87.9503 24.8853 88.2276 25.3547 88.4196 25.888C88.6116 26.4213 88.7076 26.9867 88.7076 27.584V27.872C88.7076 28.4693 88.6063 29.0347 88.4036 29.568C88.201 30.1013 87.913 30.5707 87.5396 30.976C87.177 31.3813 86.7396 31.7013 86.2276 31.936C85.7263 32.1707 85.1716 32.288 84.5636 32.288C83.9556 32.288 83.3743 32.1547 82.8196 31.888C82.265 31.6213 81.8063 31.1893 81.4436 30.592C81.081 29.9947 80.873 29.2107 80.8196 28.24L81.5236 29.52V35.2H79.9876ZM84.3236 30.944C84.8996 30.944 85.401 30.8107 85.8276 30.544C86.2543 30.2667 86.585 29.888 86.8196 29.408C87.0543 28.9173 87.1716 28.3573 87.1716 27.728C87.1716 27.088 87.0543 26.528 86.8196 26.048C86.585 25.568 86.2543 25.1947 85.8276 24.928C85.401 24.6507 84.8996 24.512 84.3236 24.512C83.8116 24.512 83.337 24.6293 82.8996 24.864C82.4623 25.088 82.1103 25.4187 81.8436 25.856C81.5876 26.2827 81.4596 26.8 81.4596 27.408V28.144C81.4596 28.7307 81.593 29.232 81.8596 29.648C82.1263 30.064 82.4783 30.384 82.9156 30.608C83.353 30.832 83.8223 30.944 84.3236 30.944ZM94.6509 32.288C93.9042 32.288 93.2589 32.16 92.7149 31.904C92.1709 31.648 91.7282 31.312 91.3869 30.896C91.0455 30.4693 90.7895 29.9947 90.6189 29.472C90.4589 28.9493 90.3789 28.416 90.3789 27.872V27.584C90.3789 27.0293 90.4589 26.4907 90.6189 25.968C90.7895 25.4453 91.0455 24.976 91.3869 24.56C91.7282 24.1333 92.1602 23.7973 92.6829 23.552C93.2162 23.296 93.8402 23.168 94.5549 23.168C95.4829 23.168 96.2455 23.3707 96.8429 23.776C97.4509 24.1707 97.8989 24.6827 98.1869 25.312C98.4855 25.9413 98.6349 26.6133 98.6349 27.328V28.016H91.0509V26.864H97.5149L97.1629 27.488C97.1629 26.88 97.0669 26.3573 96.8749 25.92C96.6829 25.472 96.3949 25.1253 96.0109 24.88C95.6269 24.6347 95.1415 24.512 94.5549 24.512C93.9469 24.512 93.4402 24.6507 93.0349 24.928C92.6402 25.2053 92.3415 25.584 92.1389 26.064C91.9469 26.544 91.8509 27.0987 91.8509 27.728C91.8509 28.336 91.9469 28.8853 92.1389 29.376C92.3415 29.856 92.6509 30.24 93.0669 30.528C93.4829 30.8053 94.0109 30.944 94.6509 30.944C95.3229 30.944 95.8669 30.7947 96.2829 30.496C96.7095 30.1973 96.9655 29.8507 97.0509 29.456H98.4909C98.3735 30.0427 98.1389 30.5493 97.7869 30.976C97.4349 31.4027 96.9922 31.728 96.4589 31.952C95.9255 32.176 95.3229 32.288 94.6509 32.288ZM107.784 32.096C107.144 32.096 106.59 32.0053 106.12 31.824C105.662 31.6427 105.304 31.3333 105.048 30.896C104.803 30.448 104.68 29.8453 104.68 29.088V20.864H106.152V29.28C106.152 29.7387 106.275 30.096 106.52 30.352C106.776 30.5973 107.134 30.72 107.592 30.72H109.096V32.096H107.784ZM103.208 24.608V23.456H109.096V24.608H103.208ZM115.142 32.288C114.396 32.288 113.74 32.16 113.174 31.904C112.609 31.648 112.129 31.312 111.734 30.896C111.35 30.4693 111.057 29.9947 110.854 29.472C110.662 28.9493 110.566 28.416 110.566 27.872V27.584C110.566 27.04 110.668 26.5067 110.87 25.984C111.073 25.4507 111.372 24.976 111.766 24.56C112.161 24.1333 112.641 23.7973 113.206 23.552C113.772 23.296 114.417 23.168 115.142 23.168C115.868 23.168 116.513 23.296 117.078 23.552C117.644 23.7973 118.124 24.1333 118.518 24.56C118.913 24.976 119.212 25.4507 119.414 25.984C119.617 26.5067 119.718 27.04 119.718 27.584V27.872C119.718 28.416 119.617 28.9493 119.414 29.472C119.222 29.9947 118.929 30.4693 118.534 30.896C118.15 31.312 117.676 31.648 117.11 31.904C116.545 32.16 115.889 32.288 115.142 32.288ZM115.142 30.912C115.782 30.912 116.326 30.7733 116.774 30.496C117.233 30.208 117.58 29.824 117.814 29.344C118.06 28.864 118.182 28.3253 118.182 27.728C118.182 27.12 118.06 26.576 117.814 26.096C117.569 25.616 117.217 25.2373 116.758 24.96C116.31 24.6827 115.772 24.544 115.142 24.544C114.524 24.544 113.985 24.6827 113.526 24.96C113.068 25.2373 112.716 25.616 112.47 26.096C112.225 26.576 112.102 27.12 112.102 27.728C112.102 28.3253 112.22 28.864 112.454 29.344C112.7 29.824 113.046 30.208 113.494 30.496C113.953 30.7733 114.502 30.912 115.142 30.912ZM128.891 35.328C128.497 35.328 128.097 35.312 127.692 35.28C127.297 35.248 126.918 35.2053 126.556 35.152V33.856C126.94 33.9093 127.34 33.952 127.756 33.984C128.182 34.0267 128.582 34.048 128.956 34.048C129.734 34.048 130.353 33.9413 130.812 33.728C131.281 33.5253 131.617 33.2 131.82 32.752C132.033 32.3147 132.14 31.7493 132.14 31.056V29.424L132.652 28.208C132.62 29.072 132.438 29.792 132.108 30.368C131.777 30.9333 131.345 31.36 130.812 31.648C130.289 31.9253 129.708 32.064 129.068 32.064C128.47 32.064 127.921 31.952 127.42 31.728C126.929 31.4933 126.502 31.1733 126.14 30.768C125.788 30.3627 125.51 29.8987 125.308 29.376C125.116 28.8427 125.02 28.2827 125.02 27.696V27.408C125.02 26.8107 125.121 26.256 125.324 25.744C125.526 25.2213 125.809 24.768 126.172 24.384C126.534 24 126.966 23.7013 127.468 23.488C127.98 23.2747 128.54 23.168 129.148 23.168C129.862 23.168 130.492 23.3227 131.036 23.632C131.58 23.9307 132.006 24.3733 132.316 24.96C132.636 25.536 132.812 26.2453 132.844 27.088L132.396 27.104V23.456H133.612V30.992C133.612 32.016 133.452 32.8427 133.132 33.472C132.822 34.112 132.321 34.5813 131.628 34.88C130.945 35.1787 130.033 35.328 128.891 35.328ZM129.356 30.656C129.868 30.656 130.332 30.544 130.748 30.32C131.174 30.096 131.51 29.776 131.756 29.36C132.012 28.9333 132.14 28.4267 132.14 27.84V27.104C132.14 26.528 132.006 26.0427 131.74 25.648C131.484 25.2533 131.148 24.9547 130.732 24.752C130.316 24.5493 129.862 24.448 129.372 24.448C128.817 24.448 128.326 24.576 127.9 24.832C127.473 25.088 127.142 25.4507 126.908 25.92C126.673 26.3787 126.556 26.9227 126.556 27.552C126.556 28.1813 126.673 28.7307 126.908 29.2C127.153 29.6693 127.484 30.032 127.9 30.288C128.326 30.5333 128.812 30.656 129.356 30.656ZM140.088 32.288C139.342 32.288 138.696 32.16 138.152 31.904C137.608 31.648 137.166 31.312 136.824 30.896C136.483 30.4693 136.227 29.9947 136.056 29.472C135.896 28.9493 135.816 28.416 135.816 27.872V27.584C135.816 27.0293 135.896 26.4907 136.056 25.968C136.227 25.4453 136.483 24.976 136.824 24.56C137.166 24.1333 137.598 23.7973 138.12 23.552C138.654 23.296 139.278 23.168 139.992 23.168C140.92 23.168 141.683 23.3707 142.28 23.776C142.888 24.1707 143.336 24.6827 143.624 25.312C143.923 25.9413 144.072 26.6133 144.072 27.328V28.016H136.488V26.864H142.952L142.6 27.488C142.6 26.88 142.504 26.3573 142.312 25.92C142.12 25.472 141.832 25.1253 141.448 24.88C141.064 24.6347 140.579 24.512 139.992 24.512C139.384 24.512 138.878 24.6507 138.472 24.928C138.078 25.2053 137.779 25.584 137.576 26.064C137.384 26.544 137.288 27.0987 137.288 27.728C137.288 28.336 137.384 28.8853 137.576 29.376C137.779 29.856 138.088 30.24 138.504 30.528C138.92 30.8053 139.448 30.944 140.088 30.944C140.76 30.944 141.304 30.7947 141.72 30.496C142.147 30.1973 142.403 29.8507 142.488 29.456H143.928C143.811 30.0427 143.576 30.5493 143.224 30.976C142.872 31.4027 142.43 31.728 141.896 31.952C141.363 32.176 140.76 32.288 140.088 32.288ZM149.581 32.096C148.941 32.096 148.387 32.0053 147.917 31.824C147.459 31.6427 147.101 31.3333 146.845 30.896C146.6 30.448 146.477 29.8453 146.477 29.088V20.864H147.949V29.28C147.949 29.7387 148.072 30.096 148.317 30.352C148.573 30.5973 148.931 30.72 149.389 30.72H150.893V32.096H149.581ZM145.005 24.608V23.456H150.893V24.608H145.005ZM159.506 32.256C158.386 32.256 157.517 32.016 156.898 31.536C156.29 31.056 155.976 30.4 155.954 29.568H157.394C157.416 29.8987 157.581 30.2133 157.89 30.512C158.21 30.8 158.749 30.944 159.506 30.944C160.189 30.944 160.712 30.8107 161.074 30.544C161.437 30.2667 161.618 29.9307 161.618 29.536C161.618 29.184 161.485 28.912 161.218 28.72C160.952 28.5173 160.52 28.384 159.922 28.32L158.994 28.224C158.184 28.1387 157.522 27.8987 157.01 27.504C156.498 27.0987 156.242 26.5333 156.242 25.808C156.242 25.264 156.381 24.8 156.658 24.416C156.936 24.0213 157.32 23.7227 157.81 23.52C158.301 23.3067 158.866 23.2 159.506 23.2C160.466 23.2 161.245 23.4133 161.842 23.84C162.44 24.2667 162.749 24.9013 162.77 25.744H161.33C161.32 25.4027 161.16 25.1147 160.85 24.88C160.552 24.6347 160.104 24.512 159.506 24.512C158.909 24.512 158.456 24.6347 158.146 24.88C157.837 25.1253 157.682 25.4347 157.682 25.808C157.682 26.128 157.789 26.384 158.002 26.576C158.226 26.768 158.589 26.8907 159.09 26.944L160.018 27.04C160.936 27.136 161.672 27.392 162.226 27.808C162.781 28.2133 163.058 28.7893 163.058 29.536C163.058 30.0693 162.904 30.544 162.594 30.96C162.296 31.3653 161.88 31.6853 161.346 31.92C160.813 32.144 160.2 32.256 159.506 32.256ZM168.613 32.096C167.973 32.096 167.418 32.0053 166.949 31.824C166.49 31.6427 166.133 31.3333 165.877 30.896C165.631 30.448 165.509 29.8453 165.509 29.088V20.864H166.981V29.28C166.981 29.7387 167.103 30.096 167.349 30.352C167.605 30.5973 167.962 30.72 168.421 30.72H169.925V32.096H168.613ZM164.037 24.608V23.456H169.925V24.608H164.037ZM177.234 32V29.44H176.978V26.48C176.978 25.8933 176.823 25.4507 176.514 25.152C176.215 24.8533 175.772 24.704 175.186 24.704C174.855 24.704 174.514 24.7093 174.162 24.72C173.81 24.7307 173.474 24.7413 173.154 24.752C172.834 24.7627 172.556 24.7787 172.322 24.8V23.456C172.556 23.4347 172.802 23.4187 173.058 23.408C173.324 23.3867 173.596 23.376 173.874 23.376C174.151 23.3653 174.418 23.36 174.674 23.36C175.548 23.36 176.263 23.4667 176.818 23.68C177.372 23.8827 177.783 24.2187 178.05 24.688C178.316 25.1573 178.45 25.792 178.45 26.592V32H177.234ZM174.434 32.224C173.794 32.224 173.239 32.1173 172.77 31.904C172.311 31.68 171.954 31.36 171.698 30.944C171.452 30.528 171.33 30.0267 171.33 29.44C171.33 28.832 171.463 28.3253 171.73 27.92C172.007 27.5147 172.407 27.2107 172.93 27.008C173.452 26.7947 174.082 26.688 174.818 26.688H177.138V27.84H174.754C174.135 27.84 173.66 27.9893 173.33 28.288C172.999 28.5867 172.834 28.9707 172.834 29.44C172.834 29.9093 172.999 30.288 173.33 30.576C173.66 30.864 174.135 31.008 174.754 31.008C175.116 31.008 175.463 30.944 175.794 30.816C176.124 30.6773 176.396 30.4533 176.61 30.144C176.834 29.824 176.956 29.3867 176.978 28.832L177.394 29.44C177.34 30.048 177.191 30.56 176.946 30.976C176.711 31.3813 176.38 31.6907 175.954 31.904C175.538 32.1173 175.031 32.224 174.434 32.224ZM181.269 32V23.456H182.485V26.976H182.421C182.421 25.728 182.693 24.816 183.237 24.24C183.792 23.6533 184.618 23.36 185.717 23.36H186.005V24.736H185.461C184.608 24.736 183.952 24.9653 183.493 25.424C183.034 25.872 182.805 26.5227 182.805 27.376V32H181.269ZM191.316 32.096C190.676 32.096 190.121 32.0053 189.652 31.824C189.193 31.6427 188.836 31.3333 188.58 30.896C188.334 30.448 188.212 29.8453 188.212 29.088V20.864H189.684V29.28C189.684 29.7387 189.806 30.096 190.052 30.352C190.308 30.5973 190.665 30.72 191.124 30.72H192.628V32.096H191.316ZM186.74 24.608V23.456H192.628V24.608H186.74ZM198.37 32.288C197.623 32.288 196.978 32.16 196.434 31.904C195.89 31.648 195.447 31.312 195.106 30.896C194.764 30.4693 194.508 29.9947 194.338 29.472C194.178 28.9493 194.098 28.416 194.098 27.872V27.584C194.098 27.0293 194.178 26.4907 194.338 25.968C194.508 25.4453 194.764 24.976 195.106 24.56C195.447 24.1333 195.879 23.7973 196.402 23.552C196.935 23.296 197.559 23.168 198.274 23.168C199.202 23.168 199.964 23.3707 200.562 23.776C201.17 24.1707 201.618 24.6827 201.906 25.312C202.204 25.9413 202.354 26.6133 202.354 27.328V28.016H194.77V26.864H201.234L200.882 27.488C200.882 26.88 200.786 26.3573 200.594 25.92C200.402 25.472 200.114 25.1253 199.73 24.88C199.346 24.6347 198.86 24.512 198.274 24.512C197.666 24.512 197.159 24.6507 196.754 24.928C196.359 25.2053 196.06 25.584 195.858 26.064C195.666 26.544 195.57 27.0987 195.57 27.728C195.57 28.336 195.666 28.8853 195.858 29.376C196.06 29.856 196.37 30.24 196.786 30.528C197.202 30.8053 197.73 30.944 198.37 30.944C199.042 30.944 199.586 30.7947 200.002 30.496C200.428 30.1973 200.684 29.8507 200.77 29.456H202.21C202.092 30.0427 201.858 30.5493 201.506 30.976C201.154 31.4027 200.711 31.728 200.178 31.952C199.644 32.176 199.042 32.288 198.37 32.288ZM208.103 32.288C207.495 32.288 206.935 32.176 206.423 31.952C205.911 31.728 205.463 31.4133 205.079 31.008C204.705 30.6027 204.412 30.1333 204.199 29.6C203.996 29.0667 203.895 28.4907 203.895 27.872V27.584C203.895 26.976 203.996 26.4053 204.199 25.872C204.401 25.3387 204.684 24.8693 205.047 24.464C205.42 24.0587 205.857 23.744 206.359 23.52C206.871 23.2853 207.436 23.168 208.055 23.168C208.705 23.168 209.297 23.3067 209.831 23.584C210.364 23.8507 210.801 24.272 211.142 24.848C211.484 25.424 211.676 26.1707 211.719 27.088L211.079 26.064V20.32H212.615V32H211.399V28.208H211.847C211.804 29.1787 211.601 29.968 211.239 30.576C210.876 31.1733 210.417 31.6107 209.863 31.888C209.319 32.1547 208.732 32.288 208.103 32.288ZM208.311 30.944C208.833 30.944 209.308 30.8267 209.735 30.592C210.161 30.3573 210.503 30.0213 210.759 29.584C211.015 29.136 211.142 28.6133 211.142 28.016V27.28C211.142 26.6933 211.009 26.1973 210.743 25.792C210.487 25.376 210.14 25.0613 209.703 24.848C209.276 24.624 208.807 24.512 208.295 24.512C207.729 24.512 207.228 24.6453 206.791 24.912C206.364 25.1787 206.028 25.552 205.783 26.032C205.548 26.512 205.431 27.0773 205.431 27.728C205.431 28.3787 205.553 28.9493 205.799 29.44C206.044 29.92 206.385 30.2933 206.823 30.56C207.26 30.816 207.756 30.944 208.311 30.944Z" fill="#DDDDDD"/>
<path opacity="0.5" d="M237.5 22L242.5 27L237.5 32" stroke="white" stroke-width="1.5" stroke-linecap="round" stroke-linejoin="round"/>
<path opacity="0.5" d="M252.5 22L257.5 27L252.5 32" stroke="white" stroke-width="1.5" stroke-linecap="round" stroke-linejoin="round"/>
<path opacity="0.5" d="M267.5 22L272.5 27L267.5 32" stroke="white" stroke-width="1.5" stroke-linecap="round" stroke-linejoin="round"/>
<rect x="295" y="5" width="44" height="44" rx="22" fill="#FEBE73"/>
<g clip-path="url(#clip0_1_87)">
<path d="M312 32L322 22" stroke="#1F2023" stroke-width="2" stroke-linecap="round" stroke-linejoin="round"/>
<path d="M313 22H322V31" stroke="#1F2023" stroke-width="2" stroke-linecap="round" stroke-linejoin="round"/>
</g>
<defs>
<clipPath id="clip0_1_87">
<rect width="24" height="24" fill="white" transform="matrix(-1 0 0 -1 329 39)"/>
</clipPath>
</defs>
</svg>
